<?xml version="1.0" encoding="UTF-8" standalone="no" ?>
<!DOCTYPE svg PUBLIC "-//W3C//DTD SVG 1.1//EN" "http://www.w3.org/Graphics/SVG/1.1/DTD/svg11.dtd">
<svg xmlns="http://www.w3.org/2000/svg" xmlns:xlink="http://www.w3.org/1999/xlink" version="1.1" width="1080" height="1080" viewBox="0 0 1080 1080" xml:space="preserve">
<desc>Created with Fabric.js 5.2.4</desc>
<defs>
</defs>
<rect x="0" y="0" width="100%" height="100%" fill="transparent"></rect>
<g transform="matrix(1 0 0 1 540 540)" id="12df519b-5251-4f1f-b8b0-612ba1e12014"  >
<rect style="stroke: none; stroke-width: 1; stroke-dasharray: none; stroke-linecap: butt; stroke-dashoffset: 0; stroke-linejoin: miter; stroke-miterlimit: 4; fill: rgb(255,255,255); fill-rule: nonzero; opacity: 1; visibility: hidden;" vector-effect="non-scaling-stroke"  x="-540" y="-540" rx="0" ry="0" width="1080" height="1080" />
</g>
<g transform="matrix(Infinity NaN NaN Infinity 0 0)" id="6b370ba4-b5d7-4d07-87f2-1bbd1760eeb8"  >
</g>
<g transform="matrix(1 0 0 1 624.79 581.04)"  >
<circle style="stroke: none; stroke-width: 1; stroke-dasharray: none; stroke-linecap: butt; stroke-dashoffset: 0; stroke-linejoin: miter; stroke-miterlimit: 4; fill: rgb(247,119,84); fill-rule: nonzero; opacity: 1;" vector-effect="non-scaling-stroke"  cx="0" cy="0" r="13.08937" />
</g>
<g transform="matrix(1 0 0 1 675.36 606.13)"  >
<path style="stroke: none; stroke-width: 1; stroke-dasharray: none; stroke-linecap: butt; stroke-dashoffset: 0; stroke-linejoin: miter; stroke-miterlimit: 4; fill: rgb(230,230,230); fill-rule: nonzero; opacity: 1;" vector-effect="non-scaling-stroke"  transform=" translate(-762.38, -576.18)" d="M 822.13393 580.0736 L 702.61983 580.0736 C 701.227297939382 580.0736001613302 699.9405451829725 579.330693243548 699.2442791060914 578.1247251303569 C 698.5480130292104 576.9187570171658 698.5480130292104 575.4329429828343 699.2442791060914 574.2269748696433 C 699.9405451829725 573.0210067564522 701.227297939382 572.27809983867 702.61983 572.2781000000001 L 822.13393 572.2781000000001 C 823.526462060618 572.27809983867 824.8132148170274 573.0210067564522 825.5094808939085 574.2269748696433 C 826.2057469707895 575.4329429828343 826.2057469707895 576.9187570171658 825.5094808939085 578.1247251303569 C 824.8132148170275 579.330693243548 823.526462060618 580.0736001613302 822.13393 580.0736 Z" stroke-linecap="round" />
</g>
<g transform="matrix(1 0 0 1 630.44 621.53)"  >
<path style="stroke: none; stroke-width: 1; stroke-dasharray: none; stroke-linecap: butt; stroke-dashoffset: 0; stroke-linejoin: miter; stroke-miterlimit: 4; fill: rgb(230,230,230); fill-rule: nonzero; opacity: 1;" vector-effect="non-scaling-stroke"  transform=" translate(-717.46, -591.58)" d="M 732.3035 595.47555 L 702.61983 595.47555 C 700.4670571822445 595.47555 698.72189 593.7303828177554 698.72189 591.57761 C 698.72189 589.4248371822446 700.4670571822445 587.67967 702.61983 587.67967 L 732.3035 587.67967 C 734.4562728177555 587.67967 736.2014399999999 589.4248371822446 736.20144 591.5776099999999 C 736.20144 593.7303828177554 734.4562728177555 595.47555 732.3035 595.47555 Z" stroke-linecap="round" />
</g>
<g transform="matrix(1 0 0 1 508.2 379.1)"  >
<path style="stroke: none; stroke-width: 1; stroke-dasharray: none; stroke-linecap: butt; stroke-dashoffset: 0; stroke-linejoin: miter; stroke-miterlimit: 4; fill: rgb(255,255,255); fill-rule: nonzero; opacity: 1;" vector-effect="non-scaling-stroke"  transform=" translate(-595.22, -349.15)" d="M 729.22291 459.6466 L 461.21277 459.6466 C 456.7599464010895 459.64152454739013 453.15148545260985 456.0330635989105 453.14641 451.58024 L 453.14641 246.71265 C 453.15154082478216 242.25990767310168 456.7600274485436 238.65158209536153 461.21277 238.64665 L 729.22291 238.64665 C 733.6756486462499 238.6515876050688 737.2841291858217 242.25991157218982 737.28926 246.71265 L 737.28926 451.58024 C 737.2841845581227 456.03305969996364 733.6757296936681 459.64151903788496 729.22291 459.6466 Z" stroke-linecap="round" />
</g>
<g transform="matrix(1 0 0 1 508.2 379.1)"  >
<path style="stroke: none; stroke-width: 1; stroke-dasharray: none; stroke-linecap: butt; stroke-dashoffset: 0; stroke-linejoin: miter; stroke-miterlimit: 4; fill: rgb(240,240,240); fill-rule: nonzero; opacity: 1;" vector-effect="non-scaling-stroke"  transform=" translate(-595.22, -349.15)" d="M 729.22272 460.6466 L 461.213 460.6466 C 456.2081831253812 460.64075883955985 452.1524356402622 456.5850068810584 452.14660000000003 451.58018999999996 L 452.14660000000003 246.71251 C 452.1524471785087 241.7077788776499 456.20826856893615 237.65217668695786 461.213 237.6466 L 729.22272 237.6466 C 734.2274530550739 237.65217667618197 738.2832773120944 241.70777726009166 738.28913 246.71251 L 738.28913 451.58019 C 738.2832943487597 456.58501077986114 734.2275407798611 460.64076434875966 729.22272 460.6466 Z M 461.21295 239.64659999999998 C 457.31226492215757 239.65091471952167 454.15113521112744 242.81182523073883 454.14655 246.71250999999998 L 454.14655 451.58019 C 454.15092022210814 455.48104493633076 457.31209506985766 458.64222425760977 461.21295 458.64660000000003 L 729.22272 458.64660000000003 C 733.1235765539334 458.64222426815167 736.2847542681517 455.4810465539334 736.28913 451.58019 L 736.28913 246.71251 C 736.2845392795008 242.81182361319298 733.1234067018802 239.65091470873722 729.22272 239.6466 Z" stroke-linecap="round" />
</g>
<g transform="matrix(1 0 0 1 508.2 469.79)"  >
<path style="stroke: none; stroke-width: 1; stroke-dasharray: none; stroke-linecap: butt; stroke-dashoffset: 0; stroke-linejoin: miter; stroke-miterlimit: 4; fill: rgb(240,240,240); fill-rule: nonzero; opacity: 1;" vector-effect="non-scaling-stroke"  transform=" translate(-595.22, -439.84)" d="M 453.76546 420.6466 L 453.76546 451.58038999999997 C 453.7715839088056 455.6908036191939 457.1022063808061 459.02142609119437 461.21262 459.02754999999996 L 729.22306 459.02754999999996 C 733.333473619194 459.0214260911944 736.6640960911946 455.6908036191939 736.6702200000001 451.58038999999997 L 736.6702200000001 420.6466 Z" stroke-linecap="round" />
</g>
<g transform="matrix(0.54 -0.84 0.84 0.54 509.19 360.67)"  >
<rect style="stroke: none; stroke-width: 1; stroke-dasharray: none; stroke-linecap: butt; stroke-dashoffset: 0; stroke-linejoin: miter; stroke-miterlimit: 4; fill: rgb(240,240,240); fill-rule: nonzero; opacity: 1;" vector-effect="non-scaling-stroke"  x="-0.99981" y="-166.779805" rx="0" ry="0" width="1.99962" height="333.55961" />
</g>
<g transform="matrix(1 0 0 1 552.86 772.67)"  >
<polygon style="stroke: none; stroke-width: 1; stroke-dasharray: none; stroke-linecap: butt; stroke-dashoffset: 0; stroke-linejoin: miter; stroke-miterlimit: 4; fill: rgb(255,182,182); fill-rule: nonzero; opacity: 1;" vector-effect="non-scaling-stroke"  points="-9.51,24.86 3.38,24.86 9.51,-24.86 -9.51,-24.86 -9.51,24.86 " />
</g>
<g transform="matrix(1 0 0 1 560.84 798.79)"  >
<path style="stroke: none; stroke-width: 1; stroke-dasharray: none; stroke-linecap: butt; stroke-dashoffset: 0; stroke-linejoin: miter; stroke-miterlimit: 4; fill: rgb(47,46,65); fill-rule: nonzero; opacity: 1;" vector-effect="non-scaling-stroke"  transform=" translate(-647.86, -768.84)" d="M 627.07552 763.367 L 630.70352 763.36685 L 644.8679500000001 757.6065 L 652.4596600000001 763.36597 L 652.4606600000001 763.36597 C 661.3945561662447 763.3664449023723 668.6368315072324 770.6086038425422 668.6374500000001 779.5424999999999 L 668.6374500000001 780.0681799999999 L 627.07623 780.0697199999998 Z" stroke-linecap="round" />
</g>
<g transform="matrix(1 0 0 1 446.48 761.4)"  >
<polygon style="stroke: none; stroke-width: 1; stroke-dasharray: none; stroke-linecap: butt; stroke-dashoffset: 0; stroke-linejoin: miter; stroke-miterlimit: 4; fill: rgb(255,182,182); fill-rule: nonzero; opacity: 1;" vector-effect="non-scaling-stroke"  points="-19.6,19.37 -8.07,25.12 19.6,-16.64 2.57,-25.12 -19.6,19.37 " />
</g>
<g transform="matrix(1 0 0 1 437.93 792.28)"  >
<path style="stroke: none; stroke-width: 1; stroke-dasharray: none; stroke-linecap: butt; stroke-dashoffset: 0; stroke-linejoin: miter; stroke-miterlimit: 4; fill: rgb(47,46,65); fill-rule: nonzero; opacity: 1;" vector-effect="non-scaling-stroke"  transform=" translate(-524.95, -762.33)" d="M 512.83262 745.58411 L 516.07973 747.20243 L 531.32635 748.36571 L 535.5515300000001 756.9069800000001 L 535.55245 756.9074400000001 C 543.547935280291 760.8932442996593 546.7989600466282 770.6056141384481 542.8141400000001 778.6015900000001 L 542.5796300000001 779.07207 L 505.38228000000004 760.53314 Z" stroke-linecap="round" />
</g>
<g transform="matrix(1 0 0 1 501.52 674.86)"  >
<path style="stroke: none; stroke-width: 1; stroke-dasharray: none; stroke-linecap: butt; stroke-dashoffset: 0; stroke-linejoin: miter; stroke-miterlimit: 4; fill: rgb(47,46,65); fill-rule: nonzero; opacity: 1;" vector-effect="non-scaling-stroke"  transform=" translate(-588.54, -644.91)" d="M 636.07424 541.77869 L 554.1189300000001 543.91669 L 555.5442400000001 583.82537 C 555.5442400000001 583.82537 554.1189300000001 594.5151900000001 556.96955 597.36581 C 559.82017 600.21643 561.24548 600.2164300000001 559.8201700000001 605.20501 C 558.3948600000001 610.19359 554.71 657.85786 554.71 657.85786 C 554.71 657.85786 521.07322 717.3334699999999 522.4985300000001 718.75878 C 523.9238400000002 720.1840900000001 525.3491500000001 718.75878 523.92384 722.32206 C 522.49853 725.8853399999999 521.07322 724.46006 522.4985300000001 725.88533 C 523.7610803059893 727.2466148331937 524.9505122647994 728.6739311809506 526.06181 730.16126 L 549.29181 730.16126 C 549.29181 730.16126 550.5908700000001 723.03471 550.5908700000001 722.32206 C 550.5908700000001 721.6094099999999 552.0161700000001 717.3334699999999 552.0161700000001 716.62082 C 552.0161700000001 715.90817 592.6022800000001 672.90719 592.6022800000001 672.90719 L 601.1541400000001 601.6417 L 621.8211400000001 671.48188 C 621.8211400000001 671.48188 621.8211400000001 732.7702 623.2464500000001 734.19551 C 624.6717600000001 735.62082 624.6717600000001 734.9081600000001 623.9591100000001 737.75878 C 623.2464600000002 740.6093999999999 620.3958300000002 739.89678 622.5338000000002 742.03471 C 624.6717700000002 744.17264 625.3844200000002 740.6094 624.6718000000002 744.17271 L 623.9591500000001 747.73598 L 651.3387900000001 748.04181 C 651.3387900000001 748.04181 654.1894100000002 742.03474 652.7641000000001 739.8968100000001 C 651.33879 737.7588800000001 651.4243100000001 738.3424400000001 653.1631900000001 734.84369 C 654.9020700000001 731.34494 655.6147200000001 730.6323 654.9020700000001 729.9196900000001 C 654.18942 729.2070800000001 654.1894100000001 725.4165 654.1894100000001 725.4165 C 654.1894100000001 725.4165 643.91348 585.25075 643.91348 583.11278 C 643.8597620258555 582.0126613331018 644.0624253323699 580.9151094403927 644.50548 579.9067200000001 L 644.50548 577.00472 L 641.77548 566.72172 Z" stroke-linecap="round" />
</g>
<g transform="matrix(1 0 0 1 517.51 365.43)"  >
<circle style="stroke: none; stroke-width: 1; stroke-dasharray: none; stroke-linecap: butt; stroke-dashoffset: 0; stroke-linejoin: miter; stroke-miterlimit: 4; fill: rgb(247,119,84); fill-rule: nonzero; opacity: 1;" vector-effect="non-scaling-stroke"  cx="0" cy="0" r="53.64177" />
</g>
<g transform="matrix(1 0 0 1 522.82 367.44)"  >
<path style="stroke: none; stroke-width: 1; stroke-dasharray: none; stroke-linecap: butt; stroke-dashoffset: 0; stroke-linejoin: miter; stroke-miterlimit: 4; fill: rgb(255,255,255); fill-rule: nonzero; opacity: 1;" vector-effect="non-scaling-stroke"  transform=" translate(-609.84, -337.48)" d="M 592.214 360.57507 C 591.4542374838034 360.57287645212415 590.7073985989706 360.378355695456 590.0431000000001 360.00964 C 588.5949822456735 359.22861506251564 587.6972605960087 357.7110498983363 587.7101000000001 356.06579 L 587.7101000000001 318.892 C 587.710068671683 317.250285025275 588.6041276132315 315.73884396418583 590.0429398085021 314.94824449165975 C 591.4817520037727 314.15764501913367 593.2369413375772 314.2133753933315 594.6227000000001 315.09366 L 629.8858800000002 333.68057 C 631.1855374558828 334.5062673439743 631.972801644069 335.9391419634186 631.972801644069 337.47891 C 631.972801644069 339.0186780365814 631.1855374558828 340.4515526560257 629.8858800000002 341.27725 L 594.6227000000001 359.86415999999997 C 593.9040353873751 360.32600860943376 593.0682700068497 360.5726785835564 592.214 360.57507 Z" stroke-linecap="round" />
</g>
<g transform="matrix(1 0 0 1 506.69 512.01)"  >
<path style="stroke: none; stroke-width: 1; stroke-dasharray: none; stroke-linecap: butt; stroke-dashoffset: 0; stroke-linejoin: miter; stroke-miterlimit: 4; fill: rgb(63,61,86); fill-rule: nonzero; opacity: 1;" vector-effect="non-scaling-stroke"  transform=" translate(-593.71, -482.05)" d="M 610.65639 406.86111 C 610.65639 406.86111 583.25811 404.12129 581.43155 406.86111 C 580.2386892245424 409.112142100466 579.6117848553116 411.6197389844372 579.60499 414.16729 C 579.60499 414.16729 568.6456900000001 418.73366 566.8191300000001 416.90709999999996 C 564.9925700000001 415.0805399999999 563.1660100000001 409.60092 557.6863300000001 411.42742999999996 C 552.2066500000001 413.25393999999994 541.71 444.85786 541.71 444.85786 C 541.71 444.85786 542.71 444.85786 548.5535 474.44348 C 552.4955 494.40166 551.84343 510.79277 552.2758699999999 521.95417 C 552.3471199999999 523.79317 549.65855 530.29381 549.7099999999999 531.85786 C 549.9392099999999 538.8258599999999 552.7668299999999 538.22695 553.1198699999999 539.28609 C 554.0331199999998 542.0259 548.5534999999999 558.46488 581.4313999999998 558.46488 C 614.3092999999998 558.46488 638.0545799999999 556.63838 638.0545799999999 550.24545 C 638.0545799999999 547.02173 641.3888599999999 545.13388 640.7099999999999 534.85786 C 640.52366 532.0372 635.6634999999999 522.4104699999999 635.6284199999999 519.4070499999999 C 635.5690110509885 515.5299393858053 635.7136610406927 511.6523883741556 636.0617699999999 507.79047999999995 C 636.3989246204414 503.93115520648854 637.0656254522571 500.1077481650134 638.0545799999999 496.3620799999999 C 643.5341999999998 476.2698799999999 645.7099999999999 439.8578599999999 645.7099999999999 439.8578599999999 L 636.7099999999999 421.8578599999999 L 617.0491699999999 418.73365999999993 C 617.0491699999999 418.73365999999993 616.13607 407.77436 610.65639 406.86111 Z" stroke-linecap="round" />
</g>
<g transform="matrix(0.97 -0.26 0.26 0.97 509.5 407.56)" id="f9362fdd-3f27-4fec-a8e4-b8d11fe473ca"  >
<circle style="stroke: none; stroke-width: 1; stroke-dasharray: none; stroke-linecap: butt; stroke-dashoffset: 0; stroke-linejoin: miter; stroke-miterlimit: 4; fill: rgb(255,182,182); fill-rule: nonzero; opacity: 1;" vector-effect="non-scaling-stroke"  cx="0" cy="0" r="23.72181" />
</g>
<g transform="matrix(1 0 0 1 622.12 778.96)"  >
<path style="stroke: none; stroke-width: 1; stroke-dasharray: none; stroke-linecap: butt; stroke-dashoffset: 0; stroke-linejoin: miter; stroke-miterlimit: 4; fill: rgb(242,242,242); fill-rule: nonzero; opacity: 1;" vector-effect="non-scaling-stroke"  transform=" translate(-709.13, -749)" d="M 709.95291 740.79142 L 710.66007 724.89125 C 718.0318089361305 720.9508546046416 726.253990574914 718.8695022422305 734.61267 718.8279200000001 C 723.10867 728.2333100000001 724.5463 746.3636700000001 716.74684 759.0117 C 711.758038360156 766.9647436763578 703.4230204786667 772.2172615703416 694.09579 773.2858200000001 L 684.46879 779.18011 C 681.795390912468 764.2764160880877 685.7820469395486 748.9494427133008 695.37844 737.23721 C 698.0707408175053 734.0169055122409 701.1578609794677 731.14846238133 704.5669399999999 728.69958 C 706.87265 734.77919 709.95291 740.79142 709.95291 740.79142 Z" stroke-linecap="round" />
</g>
<g transform="matrix(1 0 0 1 540 810.85)"  >
<path style="stroke: none; stroke-width: 1; stroke-dasharray: none; stroke-linecap: butt; stroke-dashoffset: 0; stroke-linejoin: miter; stroke-miterlimit: 4; fill: rgb(204,204,204); fill-rule: nonzero; opacity: 1;" vector-effect="non-scaling-stroke"  transform=" translate(-627.02, -780.89)" d="M 837.59547 780.89434 C 837.5966993491674 781.306669073934 837.4334408037764 781.7024634827668 837.1418713153583 781.9940179544084 C 836.8503018269402 782.28557242605 836.4544990100699 782.4488105860005 836.0421699999999 782.4475600000001 L 417.992 782.4475600000001 C 417.13418028086784 782.4475600000001 416.43878 781.7521597191322 416.43878 780.89434 C 416.43878 780.0365202808679 417.13418028086784 779.34112 417.992 779.34112 L 836.04217 779.34112 C 836.4544949278913 779.3398828189046 836.8502899476307 779.5031252842572 837.1418565208561 779.794676840856 C 837.4334230940814 780.086228397455 837.5966859444727 780.4820150089352 837.59547 780.89434 Z" stroke-linecap="round" />
</g>
<g transform="matrix(1 0 0 1 597.57 557.06)"  >
<path style="stroke: none; stroke-width: 1; stroke-dasharray: none; stroke-linecap: butt; stroke-dashoffset: 0; stroke-linejoin: miter; stroke-miterlimit: 4; fill: rgb(255,184,184); fill-rule: nonzero; opacity: 1;" vector-effect="non-scaling-stroke"  transform=" translate(-684.59, -527.11)" d="M 705.39809 546.09314 C 703.1839196352648 546.1341323732006 701.0653148784323 545.1922801322504 699.6123492876413 543.5210166070368 C 698.1593836968503 541.8497530818231 697.5213096763829 539.6207548081898 697.86982 537.4337999999999 L 656.33992 514.6945099999999 L 668.49474 508.1207299999999 L 706.98032 531.2349199999999 C 710.697038916745 532.0825432763722 713.1923928983887 535.5760886105677 712.7887252746327 539.3668032099895 C 712.3850576508768 543.1575178094113 709.2099604792013 546.0472251382254 705.39809 546.0931399999998 Z" stroke-linecap="round" />
</g>
<g transform="matrix(1 0 0 1 565.95 506.64)"  >
<path style="stroke: none; stroke-width: 1; stroke-dasharray: none; stroke-linecap: butt; stroke-dashoffset: 0; stroke-linejoin: miter; stroke-miterlimit: 4; fill: rgb(63,61,86); fill-rule: nonzero; opacity: 1;" vector-effect="non-scaling-stroke"  transform=" translate(-652.97, -476.69)" d="M 690.2491 534.28435 L 658.52219 522.66845 L 644.2491 509.28435 L 640.70263 507.47803 L 628.47992 498.899 L 628.44348 498.79085 L 609.02212 441.38124999999997 C 607.1707432763047 431.5937714928198 613.2731877222973 422.06065366194616 622.93668 419.64419999999996 L 622.93668 419.64419999999996 C 628.1430496245097 418.349007384569 633.654778406058 419.34193207851484 638.081860441109 422.3725678588441 C 642.50894247616 425.40320363917334 645.428802713902 430.182269426673 646.10508 435.50452999999993 L 652.35535 484.7070799999999 L 670.716 501.40661 L 675.24914 502.28435 L 676.29261 507.16566 L 697.24914 522.28435 Z" stroke-linecap="round" />
</g>
<g transform="matrix(1 0 0 1 459.93 356.67)"  >
<path style="stroke: none; stroke-width: 1; stroke-dasharray: none; stroke-linecap: butt; stroke-dashoffset: 0; stroke-linejoin: miter; stroke-miterlimit: 4; fill: rgb(255,184,184); fill-rule: nonzero; opacity: 1;" vector-effect="non-scaling-stroke"  transform=" translate(-546.95, -326.71)" d="M 565.84355 305.80535 C 565.895585835254 308.0192862065484 564.9643145167772 310.1425606021983 563.300321819898 311.603844133738 C 561.6363291230189 313.06512766527777 559.4105443616714 313.714313789585 557.22188 313.37672 L 534.69006 355.01955 L 528.0557200000001 342.89768 L 550.9776200000001 304.29726 C 551.8066884856 300.57635504927975 555.2877442459531 298.0636002059485 559.0804284459912 298.4483530680456 C 562.8731126460291 298.83310593014266 565.7786241610149 301.993752848996 565.8435500000002 305.80535 Z" stroke-linecap="round" />
</g>
<g transform="matrix(1 0 0 1 457.51 410.35)"  >
<path style="stroke: none; stroke-width: 1; stroke-dasharray: none; stroke-linecap: butt; stroke-dashoffset: 0; stroke-linejoin: miter; stroke-miterlimit: 4; fill: rgb(63,61,86); fill-rule: nonzero; opacity: 1;" vector-effect="non-scaling-stroke"  transform=" translate(-544.53, -380.4)" d="M 569.02419 421.88517 L 554.8961 401.32754 C 554.8961 401.32754 557.11738 401.45822 555.71004 396.85786 C 555.3269600000001 395.60562000000004 551.63197 391.28492 551.2127800000001 389.78694 C 550.8433200000001 388.46666 550.4655 387.05884000000003 550.0893000000001 385.57742 C 548.74039 380.26549 541.4527300000001 375.35398000000004 542.71004 368.85786 C 548.71004 337.85786 551.71004 331.85786 552.63072 326.89215 C 552.63072 326.89215 547.41438 307.5536 538.94808 319.49842 C 530.48178 331.44324 517.06295 361.80353 520.61476 376.88986 C 524.1665700000001 391.97619 537.7437600000001 441.19145000000003 541.92276 444.85173 C 546.10176 448.5120099999999 569.02419 421.88517 569.02419 421.88517 Z" stroke-linecap="round" />
</g>
<g transform="matrix(1 0 0 1 509.16 402.24)"  >
<path style="stroke: none; stroke-width: 1; stroke-dasharray: none; stroke-linecap: butt; stroke-dashoffset: 0; stroke-linejoin: miter; stroke-miterlimit: 4; fill: rgb(47,46,65); fill-rule: nonzero; opacity: 1;" vector-effect="non-scaling-stroke"  transform=" translate(-596.18, -372.29)" d="M 613.727 349.54835 C 611.97034 349.49617 612.57337 346.18501000000003 611.15809 345.12873 Q 611.14774 345.1768 611.13667 345.22468000000003 C 610.7557393509687 346.69307471523206 609.4602305670583 347.74028426650443 607.9446085615981 347.804945968134 C 606.4289865561379 347.8696076697636 605.0489924508055 346.936544369278 604.5443799999999 345.50593000000003 C 604.0680927364157 343.87015250597665 602.8266764857145 342.56780288553205 601.2155799999999 342.01374000000004 C 601.12745 345.08274000000006 598.80598 347.74641 596.0365099999999 349.07197 C 593.2670399999998 350.39753 590.10926 350.61811 587.0392499999999 350.66352 C 583.9689400433932 350.5395689517946 580.8946188418205 350.7724102961211 577.8779999999999 351.35737 C 574.901 352.10859 572.00532 353.87489 570.7334099999999 356.66937 C 569.4614099999999 359.46387000000004 570.36897 363.31128 573.15022 364.61188000000004 C 570.9956099999999 364.62335 569.16737 366.40131 568.42237 368.42304 C 567.8116981813861 370.4967559718707 567.6524033132696 372.6772400210208 567.95521 374.81769 C 568.56074 382.74341000000004 570.03706 391.27637000000004 575.8082999999999 396.74231000000003 C 580.20679 400.90814 586.5025699999999 402.58631 592.56062 402.56207 C 598.61862 402.53778 597.55347 401.98096 603.4109599999999 400.43475 C 603.4109599999999 400.43475 608.9798099999999 384.47022 607.5775199999999 382.89975 C 606.1752399999999 381.32932 605.0105199999999 379.31967 605.26429 377.22958 C 605.51806 375.13949 607.76423 373.26718 609.7135099999999 374.06284 C 609.3857499999999 373.22494 609.1388 373.06534 608.9841399999999 373.10784 C 609.0826042832009 372.8697078119964 609.1685777953157 372.6266007417685 609.2417099999999 372.37951 C 609.9860906269765 369.82503273312176 611.9115706451579 367.78321664755555 614.4180399999999 366.89043 C 616.9740803234401 366.0608817320562 619.7764004956002 366.9089598156743 621.44355 369.01659 C 627.85744 363.00129 623.87825 349.8498 613.727 349.54835 Z" stroke-linecap="round" />
</g>
</svg>